<svg xmlns="http://www.w3.org/2000/svg" width="65" height="61.45" viewBox="0 0 65 61.45"><path d="M15.37,41.82A11.09,11.09,0,0,1,4.51,31.27H0C.72,41.4,9.76,47.66,18.85,45.45a24.73,24.73,0,0,1-.89-4A10.56,10.56,0,0,1,15.37,41.82Z" fill="#fcb316"/><path d="M30.68,30.07a15.9,15.9,0,0,1-5.42,12,19.18,19.18,0,0,1-.41-6.25,13.18,13.18,0,0,0,.94-2.46,12.76,12.76,0,0,0-1.7-10.51,11,11,0,0,0-9.23-4.33c-3.93,0-7,1.78-9.34,5.21L2.1,22.19,6.1-.16H26.49V4.28H9.91L7.62,16.86c5.73-4.34,14.17-3.2,18.87,1.84A16.54,16.54,0,0,1,30.68,30.07Z" fill="#fcb316"/><path d="M65,37.5c.1,26.24-35.32,33-44.58,8.76A23.94,23.94,0,0,1,23.3,23.93,10.81,10.81,0,0,1,25,30.37a19,19,0,0,0-.85,2.51A19.9,19.9,0,0,0,24.21,43c6,21.27,36.07,17.36,36.22-5.52.14-15.07-17.88-24.8-29.92-14.66a16.49,16.49,0,0,0-2.28-3.91C43.28,7.45,65.18,18.61,65,37.5Z" fill="#fcb316"/><polygon points="35.67 -0.21 32.6 4.65 29.6 -0.21 27.78 -0.21 31.82 6.01 31.82 11.26 33.37 11.26 33.37 6.01 37.49 -0.21 35.67 -0.21" fill="#1d1d1b"/><path d="M41.6,6.71a2.2,2.2,0,0,0-2.19-2.35c-1.11,0-2,.81-2.18,2.35ZM43,8.91a3.47,3.47,0,0,1-3.46,2.58c-2.27,0-3.75-1.54-3.75-4.13a3.68,3.68,0,0,1,3.7-4,3.34,3.34,0,0,1,3.37,2.71A7.21,7.21,0,0,1,43,7.64H37.2a2.55,2.55,0,0,0,2.47,2.87,2,2,0,0,0,2-1.78Z" fill="#1d1d1b"/><path d="M47,7.87c-1.43.31-1.67.84-1.67,1.38s.48,1.13,1.44,1.13a2.07,2.07,0,0,0,2-1.15c.2-.42.21-.6.21-1.72-.5.08-1.18.18-2,.36m2-1.19V6.49c0-.8,0-2.13-1.72-2.13S45.6,5.56,45.6,6l-1.37-.09a3,3,0,0,1,.31-1.15,2.8,2.8,0,0,1,2.65-1.36A3.85,3.85,0,0,1,49.43,4a2.85,2.85,0,0,1,.83,2.58V9.08c0,.74,0,1.11.55,1.11a1,1,0,0,0,.42-.08v1.12a3,3,0,0,1-.81.13,1.19,1.19,0,0,1-1.33-1.14,3.43,3.43,0,0,1-2.63,1.25,2.33,2.33,0,0,1-2.6-2.19,2,2,0,0,1,.34-1.15c.44-.65,1.25-1.17,3.54-1.35Z" fill="#1d1d1b"/><path d="M53.4,3.61V5A2.79,2.79,0,0,1,56,3.51v1.4a4.11,4.11,0,0,0-.53,0,2,2,0,0,0-1.78.91,3.64,3.64,0,0,0-.32,1.93v3.54H52.1V3.61Z" fill="#1d1d1b"/><path d="M59.28,7.88c-1.23-.29-2.75-.63-2.75-2.22,0-1.4,1.19-2.28,3-2.28a3,3,0,0,1,3.28,2.5l-1.39.18a1.35,1.35,0,0,0-.56-1.23,2.37,2.37,0,0,0-1.47-.46c-1,0-1.52.61-1.52,1.13,0,.73.83,1,1.84,1.2l.73.18c.91.21,2.55.6,2.55,2.2,0,1.26-1.1,2.43-3.21,2.43a4.21,4.21,0,0,1-2.38-.62,2.92,2.92,0,0,1-1.13-2.08l1.46-.23a1.73,1.73,0,0,0,.57,1.5,2.23,2.23,0,0,0,1.54.43c1.14,0,1.8-.43,1.8-1.26S60.94,8.21,60,8Z" fill="#1d1d1b"/><text transform="translate(9.62 44.73)" font-size="11.29" fill="#626366" font-family="AkzidenzGroteskBE-Md, Berthold Akzidenz Grotesk" font-weight="500"> </text></svg>