<svg xmlns="http://www.w3.org/2000/svg" width="55" height="52" viewBox="0 0 55 52"><path d="M13,35.57a9.37,9.37,0,0,1-9.19-8.92H0a12.9,12.9,0,0,0,16,12,23.26,23.26,0,0,1-.76-3.35A8.74,8.74,0,0,1,13,35.57Z" fill="#aac02c"/><path d="M26,25.62a13.46,13.46,0,0,1-4.59,10.21,16.76,16.76,0,0,1-.35-5.3,10.91,10.91,0,0,0-.64-11,9.29,9.29,0,0,0-7.8-3.66,9.15,9.15,0,0,0-7.91,4.4L1.77,19,5.16,0H22.41V3.81h-14L6.45,14.45a12.23,12.23,0,0,1,16,1.56A13.92,13.92,0,0,1,26,25.62Z" fill="#aac02c"/><path d="M55,31.91c.08,22.21-29.89,27.88-37.72,7.42a20.23,20.23,0,0,1,2.44-18.9,9.12,9.12,0,0,1,1.43,5.45A16,16,0,0,0,20.43,28a17,17,0,0,0,.05,8.53c5.06,18,30.53,14.69,30.65-4.67.12-12.75-15.13-21-25.32-12.4a13.94,13.94,0,0,0-1.93-3.31C36.62,6.48,55.15,15.93,55,31.91Z" fill="#aac02c"/><polygon points="30.18 0.01 27.59 4.12 25.04 0.01 23.5 0.01 26.93 5.27 26.93 9.71 28.23 9.71 28.23 5.27 31.72 0.01 30.18 0.01" fill="#1d1d1b"/><path d="M35.2,5.86a1.87,1.87,0,0,0-1.86-2c-.93,0-1.71.69-1.84,2Zm1.19,1.86A2.92,2.92,0,0,1,33.47,9.9c-1.93,0-3.18-1.3-3.18-3.49A3.12,3.12,0,0,1,33.43,3a2.82,2.82,0,0,1,2.84,2.3,6,6,0,0,1,.12,1.32H31.47a2.17,2.17,0,0,0,2.09,2.43,1.71,1.71,0,0,0,1.72-1.51Z" fill="#1d1d1b"/><path d="M39.74,6.84c-1.21.26-1.42.71-1.42,1.17s.41,1,1.22,1a1.76,1.76,0,0,0,1.72-1c.17-.35.18-.51.18-1.45-.43.06-1,.15-1.7.3m1.69-1V5.67c0-.67,0-1.8-1.46-1.8s-1.39,1-1.39,1.36l-1.15-.07a2.3,2.3,0,0,1,.26-1A2.35,2.35,0,0,1,39.93,3a3.21,3.21,0,0,1,1.89.55,2.4,2.4,0,0,1,.71,2.19v2.1c0,.62,0,.93.46.93a1,1,0,0,0,.36-.06v.94a2.25,2.25,0,0,1-.69.11,1,1,0,0,1-1.12-1,2.9,2.9,0,0,1-2.23,1.06A2,2,0,0,1,37.11,8a1.78,1.78,0,0,1,.29-1c.37-.55,1.06-1,3-1.14Z" fill="#1d1d1b"/><path d="M45.18,3.24V4.42a2.35,2.35,0,0,1,2.23-1.26V4.34a3,3,0,0,0-.45,0,1.67,1.67,0,0,0-1.5.77,3.07,3.07,0,0,0-.28,1.64v3h-1.1V3.24Z" fill="#1d1d1b"/><path d="M50.16,6.85c-1-.24-2.32-.53-2.32-1.88,0-1.18,1-1.92,2.5-1.92a2.56,2.56,0,0,1,2.78,2.11l-1.19.15a1.14,1.14,0,0,0-.46-1,2,2,0,0,0-1.25-.39c-.86,0-1.28.51-1.28,1,0,.62.7.81,1.55,1l.62.15c.77.18,2.16.51,2.16,1.87,0,1.06-.94,2.05-2.72,2.05a3.57,3.57,0,0,1-2-.52,2.48,2.48,0,0,1-1-1.76l1.23-.2a1.51,1.51,0,0,0,.48,1.27,1.93,1.93,0,0,0,1.31.37c1,0,1.53-.37,1.53-1.07s-.57-.88-1.35-1Z" fill="#1d1d1b"/><text transform="translate(20.45 44.59)" font-size="11.29" fill="#626366" font-family="AkzidenzGroteskBE-Md, Berthold Akzidenz Grotesk" font-weight="500"> </text></svg>