<svg xmlns="http://www.w3.org/2000/svg" width="282" height="65" viewBox="0 0 282 65"><path fill="#AAC02C" d="M3.958 42.273c.22.388.402.72.65 1.074.95 1.525 1.958 2.432 3.972 3.35.317.13.496.23.81.355 1.905.546 3.946.695 6.118.716l.42.006h21.628c.322.02.688-.006 1.027.04 1.597.06 1.775.11 2.634.32.647.19.902.276 1.493.472.47.158.83.34 1.268.576.244.102.474.23.724.39 1.404.81 2.55 2.224 3.248 3.626.32.568.513 1.143.746 1.746.14.47.27.93.392 1.377.057.147.2.167.27.064.137-.375.2-.713.318-1.112.14-.416.255-.78.433-1.22.79-2.133 2.406-3.868 4.498-4.87.296-.13.42-.207.747-.312.364-.152.727-.248 1.108-.346.402-.142.855-.213 1.284-.293.5-.096 1.01-.19 1.482-.27.768-.09 1.57-.15 2.352-.197l.18-.006 20.946-.018.38-.013 2.075-.037c.7-.04 1.54-.18 2.246-.354.66-.156 1.263-.335 1.87-.552.337-.15.54-.247.825-.39 2.274-1.115 3.827-3.338 4.685-5.555.13-.288.254-.563.375-.843.098 1.105.017 2.172-.02 3.275-.03.302-.03.51-.062.815-.048.8-.16 1.377-.32 2.154-.12.53-.276 1.048-.43 1.556-.085.228-.132.37-.214.576-.858 2.183-2.83 4.033-4.98 4.8-.272.1-.496.192-.86.307-1.967.52-4.034.86-6.15.945-.452.03-.928.052-1.38.068l-21.976.065c-.316.006-.495.02-.84.055-.88.08-1.708.24-2.548.486-.38.072-.618.158-.974.292-1.556.61-3.08 2.065-3.835 3.58-.24.41-.397.723-.573 1.14-.22.585-.405 1.14-.604 1.735-.037.178-.073.282-.127.475-.145-.467-.277-.875-.454-1.31-.094-.253-.125-.346-.257-.57-1.403-2.8-4.095-5.314-7.222-5.76 0 0-1.523-.128-.937-.124.73 0-25.21-.062-25.21-.062-1.005.02-1.813-.094-2.846-.207-.714-.114-1.396-.26-2.152-.51-2.35-.767-4.78-2.567-5.87-4.923-.288-.533-.765-2.06-.904-2.7-.148-.68-.453-4.84-.416-6.21l.037-.016c.197.836.546 1.593.918 2.343"/><path d="M8.348 38.896c3.177-.062 3.99-.607 3.99-1.918V19.972c0-1.644-.763-2.632-3.932-2.682v-1.7l8.528-.217v21.604c0 1.312.77 1.857 3.995 1.918v1.7H8.347v-1.7zm3.06-32.165c0-1.905 1.263-3.335 3.12-3.335 1.86 0 3.12 1.31 3.12 3.23 0 1.916-1.26 3.286-3.12 3.286-1.857 0-3.12-1.262-3.12-3.18M23.73 38.896c3.17-.062 3.99-.607 3.99-1.918V19.972c0-1.644-.763-2.632-3.94-2.682v-1.7l8.537-.217v21.604c0 1.312.764 1.857 3.99 1.918v1.7H23.732v-1.7zM26.793 6.73c0-1.905 1.257-3.335 3.12-3.335 1.86 0 3.11 1.31 3.11 3.23 0 1.916-1.25 3.286-3.11 3.286-1.863 0-3.12-1.262-3.12-3.18M37.757 28.283c0-7.49 4.597-13.24 11.707-13.24 7.17 0 10.446 6.238 10.01 12.252H42.68v.439c0 6.016 3.008 10.396 8.37 10.396 3.06 0 5.524-1.975 7.715-4.655l1.096 1.04c-2.024 3.402-4.87 6.513-10.396 6.513-7.66 0-11.707-5.516-11.707-12.745m4.978-2.63l11.76-.273c.544-4.646-1.472-8.637-5.412-8.637-3.336 0-5.908 2.572-6.348 8.91M63.09 28.45c0-7.61 4.818-13.406 12.14-13.406 2.787 0 4.43.604 5.907 1.474V7.826c0-1.643-1.038-2.62-4.212-2.68V3.454l8.808-.224v33.747c0 1.37.822 1.86 3.99 1.978V40.6l-8.48.214v-2.896c-1.857 1.9-4.205 3.11-7.43 3.11-6.726 0-10.722-5.517-10.722-12.578m18.047 7.65V19.912c-1.418-2.133-2.954-3.17-5.633-3.17-3.88 0-7.323 3.99-7.323 11.434 0 5.852 2.84 10.23 7.764 10.23 1.964 0 3.665-.997 5.193-2.306M103.25 14.846c1.623-.062 2.01-.23 2.01-.832V4.196c0-.594-.387-.77-2.01-.832V2.75h5.86v.614c-1.624.062-2.01.238-2.01.832v9.817c0 .603.386.77 2.01.832v.614h-5.86v-.614zM110.286 14.867c1.125-.02 1.412-.22 1.412-.678V8.182c0-.583-.287-.93-1.412-.946v-.605l3-.073v1.333c1.02-.72 2.216-1.395 3.496-1.395 1.333 0 2.176.946 2.176 2.686v5.006c0 .46.27.656 1.416.678v.593h-4.268v-.592c.98-.02 1.233-.22 1.233-.678V9.88c0-1.718-.672-2.186-1.838-2.186-.865 0-1.645.386-2.186.79v5.705c0 .458.257.655 1.218.677v.593h-4.248v-.593zM122.225 13.2V7.485h-1.644v-.54l1.687-.355V4.123l1.583-.698v3.208h2.8v.812h-2.8v5.548c0 1.062.385 1.562 1.196 1.562.542 0 .97-.405 1.416-1.042l.438.312c-.708 1.292-1.368 1.79-2.603 1.79-1.3 0-2.072-.79-2.072-2.415M129.106 10.192l4.153-.104c.19-1.636-.522-3.05-1.917-3.05-1.176 0-2.08.906-2.237 3.154m-1.76.927c0-2.656 1.625-4.676 4.138-4.676 2.525 0 3.69 2.196 3.53 4.32h-5.93v.155c0 2.123 1.062 3.675 2.96 3.675 1.076 0 1.945-.698 2.718-1.645l.393.364c-.712 1.197-1.725 2.3-3.67 2.3-2.712 0-4.138-1.945-4.138-4.495M135.874 14.867c1.124-.02 1.415-.22 1.415-.678V8.182c0-.583-.292-.93-1.416-.946v-.605l2.998-.073v1.5c.686-.845 1.562-1.562 2.568-1.562.992 0 1.43.676 1.43 1.332 0 .622-.396 1.104-1 1.104-.583 0-1.063-.345-1.063-1.01 0-.094.022-.21.042-.324-.874-.04-1.558.562-1.937 1.123v5.467c0 .46.354.656 1.624.678v.593h-4.663v-.593zM143.44 14.867c1.122-.02 1.415-.22 1.415-.678V8.182c0-.583-.293-.93-1.416-.946v-.605l2.997-.073v1.333c1.02-.72 2.228-1.395 3.498-1.395 1.332 0 2.186.946 2.186 2.686v5.006c0 .46.272.656 1.407.678v.593h-4.278v-.592c.998-.02 1.247-.22 1.247-.678V9.88c0-1.718-.687-2.186-1.832-2.186-.875 0-1.646.386-2.187.79v5.705c0 .458.25.655 1.21.677v.593h-4.25v-.593zM159.438 13.356v-2.528c-2.777.593-3.422.998-3.422 2.278 0 .812.457 1.447 1.455 1.447.773 0 1.544-.593 1.968-1.197m-5.235.198c0-.78.375-1.57 1.188-2.008 1.46-.812 3.77-1.125 4.05-1.354V9.63c0-1.936-.54-2.53-1.8-2.53-.626 0-.98.168-1.313.5.15.324.23.636.23.906 0 .583-.355 1.042-1.022 1.042-.625 0-.958-.48-.958-1.042 0-1.12 1.48-2.01 3.33-2.01 2.022 0 3.147.907 3.147 2.767v4.428c0 .944.23 1.176 1.497 1.02l.086.463c-.71.257-1.188.37-1.812.37-1.02 0-1.188-.447-1.312-1.487h-.072c-.78.864-1.758 1.524-2.903 1.524-1.626 0-2.334-.984-2.334-2.026M163.876 13.2V7.485h-1.646v-.54l1.688-.355V4.123l1.582-.698v3.208h2.792v.812H165.5v5.548c0 1.062.384 1.562 1.188 1.562.54 0 .977-.405 1.414-1.042l.455.312c-.726 1.292-1.37 1.79-2.62 1.79-1.29 0-2.06-.79-2.06-2.415M170.255 3.23c0-.678.455-1.18 1.104-1.18.663 0 1.103.47 1.103 1.147 0 .676-.438 1.154-1.104 1.154-.65.002-1.105-.445-1.105-1.12m-1.082 11.637c1.124-.02 1.416-.22 1.416-.678V8.182c0-.583-.273-.93-1.397-.946v-.605l3.02-.073v7.63c0 .46.27.656 1.414.678v.593h-4.454v-.593zM180.923 11.017c0-2.7-1.07-3.978-2.618-3.978-1.52 0-2.437 1.277-2.437 3.977 0 2.704 1.062 4.005 2.616 4.005 1.506 0 2.44-1.3 2.44-4.005m-6.847.04c0-2.687 1.687-4.614 4.33-4.614 2.727 0 4.31 1.855 4.31 4.54 0 2.706-1.686 4.633-4.31 4.633-2.768 0-4.33-1.853-4.33-4.56M183.5 14.867c1.123-.02 1.416-.22 1.416-.678V8.182c0-.583-.293-.93-1.417-.946v-.605l2.996-.073v1.333c1.02-.72 2.21-1.395 3.5-1.395 1.33 0 2.184.946 2.184 2.686v5.006c0 .46.27.656 1.396.678v.593h-4.268v-.592c.99-.02 1.248-.22 1.248-.678V9.88c0-1.718-.687-2.186-1.852-2.186-.855 0-1.63.386-2.17.79v5.705c0 .458.253.655 1.21.677v.593h-4.247l.002-.593zM199.488 13.356v-2.528c-2.77.593-3.414.998-3.414 2.278 0 .812.438 1.447 1.457 1.447.77 0 1.542-.593 1.958-1.197m-5.226.198c0-.78.358-1.57 1.17-2.008 1.477-.812 3.768-1.125 4.057-1.354V9.63c0-1.936-.54-2.53-1.79-2.53-.624 0-.978.168-1.31.5.145.324.228.636.228.906 0 .583-.374 1.042-1.02 1.042-.624 0-.976-.48-.976-1.042 0-1.12 1.495-2.01 3.35-2.01 2.006 0 3.145.907 3.145 2.767v4.428c0 .944.222 1.176 1.498 1.02l.064.463c-.69.257-1.17.37-1.795.37-1.02 0-1.187-.447-1.312-1.487h-.083c-.77.864-1.748 1.524-2.894 1.524-1.625 0-2.334-.984-2.334-2.026M203.128 14.867c1.125-.02 1.414-.22 1.414-.678V3.62c0-.58-.372-.932-1.497-.947v-.602l3.12-.073v12.19c0 .458.257.655 1.397.677v.593h-4.436l.002-.593zM210.63 14.846c1.624-.062 2-.23 2-.832V4.196c0-.594-.376-.77-2-.832V2.75h5.85v.614c-1.622.062-2.005.238-2.005.832v9.817c0 .603.383.77 2.006.832v.614h-5.85v-.614zM217.667 14.867c1.108-.02 1.396-.22 1.396-.678V8.182c0-.583-.287-.93-1.396-.946v-.605l2.996-.073v1.333c1.02-.72 2.21-1.395 3.483-1.395 1.347 0 2.182.946 2.182 2.686v5.006c0 .46.27.656 1.416.678v.593h-4.268v-.592c.98-.02 1.23-.22 1.23-.678V9.88c0-1.718-.67-2.186-1.835-2.186-.87 0-1.644.386-2.185.79v5.705c0 .458.252.655 1.228.677v.593h-4.247v-.593zM228.535 12.66h.562c.873 1.434 1.777 2.362 2.895 2.362 1.04 0 1.582-.718 1.582-1.468 0-.916-.542-1.28-2.292-1.82-1.956-.583-2.644-1.258-2.644-2.472 0-1.683 1.188-2.82 3.103-2.82.626 0 1.417.23 1.834.502l.354-.502h.44v2.625h-.556c-.613-1.196-1.346-2.028-2.302-2.028-.927 0-1.54.602-1.54 1.445 0 .79.646 1.198 2.206 1.644 1.833.52 2.624 1.196 2.624 2.51 0 1.623-1.02 2.976-2.998 2.976-.71 0-1.727-.306-2.246-.614l-.578.614h-.443V12.66zM236.945 13.2V7.485H235.3v-.54l1.687-.355V4.123l1.582-.698v3.208h2.79v.812h-2.79v5.548c0 1.062.376 1.562 1.187 1.562.54 0 .978-.405 1.414-1.042l.445.312c-.715 1.292-1.365 1.79-2.608 1.79-1.292 0-2.062-.79-2.062-2.415M243.52 3.23c0-.678.458-1.18 1.105-1.18.665 0 1.104.47 1.104 1.147 0 .676-.44 1.154-1.105 1.154-.646.002-1.104-.445-1.104-1.12m-1.08 11.637c1.122-.02 1.413-.22 1.413-.678V8.182c0-.583-.27-.93-1.396-.946v-.605l3.02-.073v7.63c0 .46.272.656 1.415.678v.593h-4.453v-.593zM248.396 13.2V7.485h-1.646v-.54l1.687-.355V4.123l1.582-.698v3.208h2.81v.812h-2.81v5.548c0 1.062.395 1.562 1.206 1.562.54 0 .96-.405 1.398-1.042l.453.312c-.72 1.292-1.374 1.79-2.616 1.79-1.293 0-2.064-.79-2.064-2.415M255.014 12.93V8.007c0-.603-.312-.738-1.438-.77v-.604l3.058-.093v5.693c0 1.727.67 2.186 1.94 2.186.874 0 1.455-.292 2.037-.657V8.006c0-.603-.37-.738-1.435-.77v-.604l3.06-.093v7.65c0 .478.292.655 1.403.696v.573h-2.986v-1.115c-.976.696-2.078 1.27-3.35 1.27-1.394 0-2.288-.946-2.288-2.684M265.072 13.2V7.485h-1.646v-.54l1.688-.355V4.123l1.58-.698v3.208h2.81v.812h-2.81v5.548c0 1.062.395 1.562 1.206 1.562.54 0 .96-.405 1.398-1.042l.456.312c-.728 1.292-1.374 1.79-2.62 1.79-1.29 0-2.062-.79-2.062-2.415M271.945 10.192l4.16-.104c.188-1.636-.52-3.05-1.916-3.05-1.174 0-2.083.906-2.245 3.154m-1.752.927c0-2.656 1.623-4.676 4.142-4.676 2.52 0 3.685 2.196 3.522 4.32h-5.924v.155c0 2.123 1.066 3.675 2.963 3.675 1.082 0 1.938-.698 2.71-1.645l.394.365c-.71 1.197-1.73 2.3-3.665 2.3-2.705 0-4.142-1.946-4.142-4.496M102.885 34.747c1.124-.02 1.43-.21 1.43-.666v-6.703h-1.638v-.542l1.64-.353v-.365c0-1.666.42-2.728 1.12-3.425.62-.614 1.373-.927 2.122-.927 1.453 0 2.127.72 2.127 1.458 0 .593-.37.998-.93.998-.5 0-1.042-.32-1.042-1.216 0-.156.02-.323.062-.52-.177-.074-.333-.114-.49-.114-.3 0-.555.072-.81.32-.344.355-.542.99-.542 2.5v1.332h2.456v.812h-2.455v6.746c0 .457.406.625 1.936.666v.604h-4.985v-.603zM115.616 30.906c0-2.704-1.063-3.977-2.604-3.977-1.53 0-2.436 1.27-2.436 3.976 0 2.716 1.062 4.01 2.605 4.01 1.51 0 2.436-1.294 2.436-4.01m-6.84.043c0-2.69 1.686-4.625 4.33-4.625 2.728 0 4.31 1.863 4.31 4.548 0 2.707-1.685 4.643-4.31 4.643-2.76 0-4.33-1.87-4.33-4.567M118.198 34.747c1.125-.02 1.415-.21 1.415-.666v-6.015c0-.575-.29-.927-1.415-.94v-.602l2.998-.075v1.5c.676-.843 1.562-1.562 2.57-1.562.98 0 1.428.678 1.428 1.333 0 .613-.406 1.103-1.006 1.103-.577 0-1.066-.354-1.066-1.01 0-.094.02-.208.04-.324-.864-.042-1.54.56-1.928 1.115v5.475c0 .457.348.646 1.617.666v.604H118.2v-.603zM127.75 34.73c1.625-.044 2.01-.23 2.01-.82v-9.82c0-.596-.386-.77-2.01-.833v-.614h10.316l.062 3.55-.603.02c-.67-2.164-1.02-2.852-3.188-2.852h-2.746v5.04h1.146c1.433 0 1.974-.136 2.455-2.145h.522v5.026h-.52c-.482-2.008-1.023-2.145-2.456-2.145h-1.145v5.487h2.747c2.544 0 3.166-1 3.852-3.248l.584.02-.085 3.956h-10.94v-.62zM139.794 34.747c1.11-.02 1.396-.21 1.396-.666v-6.015c0-.575-.287-.927-1.396-.94v-.602l2.992-.075v1.333c1.024-.716 2.214-1.395 3.487-1.395 1.343 0 2.183.947 2.183 2.688v5.007c0 .457.27.646 1.415.666v.604h-4.27v-.604c.98-.02 1.23-.21 1.23-.666v-4.31c0-1.72-.667-2.187-1.832-2.187-.874 0-1.646.386-2.187.79v5.706c0 .456.25.645 1.23.665v.604h-4.248l.002-.603zM150.787 28.262c-.334-.832-.604-1.125-1.5-1.218v-.562h4.33v.562c-.916.062-1.27.27-1.27.62 0 .098.02.192.084.37l2.145 5.442h.063l1.812-4.612c.146-.405.25-.718.25-.967 0-.448-.292-.74-1.146-.875v-.54h3.413v.54c-.603.084-1.124.562-1.5 1.51l-2.874 6.942h-.912l-2.893-7.212zM160.64 23.12c0-.677.44-1.176 1.105-1.176.646 0 1.104.467 1.104 1.143 0 .677-.458 1.156-1.105 1.156-.668 0-1.104-.448-1.104-1.124m-1.08 11.627c1.122-.02 1.413-.21 1.413-.666v-6.015c0-.575-.27-.927-1.395-.94v-.602l3.02-.075v7.632c0 .457.27.646 1.398.666v.604h-4.438v-.603zM164.64 34.747c1.12-.02 1.413-.21 1.413-.666v-6.015c0-.575-.293-.927-1.414-.94v-.602l2.995-.075v1.5c.67-.843 1.562-1.562 2.562-1.562.998 0 1.436.678 1.436 1.333 0 .613-.396 1.103-1 1.103-.582 0-1.06-.354-1.06-1.01 0-.094.02-.208.04-.324-.875-.042-1.562.56-1.937 1.115v5.475c0 .457.353.646 1.623.666v.604h-4.662v-.603zM178.857 30.906c0-2.704-1.062-3.977-2.604-3.977-1.524 0-2.437 1.27-2.437 3.976 0 2.716 1.062 4.01 2.603 4.01 1.52 0 2.437-1.294 2.437-4.01m-6.83.043c0-2.69 1.666-4.625 4.313-4.625 2.724 0 4.306 1.863 4.306 4.548 0 2.707-1.666 4.643-4.306 4.643-2.75 0-4.313-1.87-4.313-4.567M181.448 34.747c1.104-.02 1.396-.21 1.396-.666v-6.015c0-.575-.29-.927-1.396-.94v-.602l2.98-.075v1.333c1.034-.716 2.226-1.395 3.497-1.395 1.332 0 2.186.947 2.186 2.688v5.007c0 .457.272.646 1.415.666v.604h-4.27v-.604c.98-.02 1.23-.21 1.23-.666v-4.31c0-1.72-.668-2.187-1.832-2.187-.875 0-1.646.386-2.187.79v5.706c0 .456.25.645 1.228.665v.604h-4.248l.002-.603zM197.857 34.747c.977-.02 1.12-.21 1.12-.666v-4.288c0-1.727-.686-2.207-1.85-2.207-.875 0-1.45.386-1.987.79v5.706c0 .458.133.647 1.092.667v.604h-4.125v-.603c1.125-.02 1.412-.21 1.412-.666v-6.015c0-.575-.288-.927-1.413-.94v-.602l3-.075v1.333c1.02-.716 2.04-1.395 3.31-1.395 1.015 0 1.75.6 2.04 1.646 1.13-1.01 2.27-1.645 3.52-1.645 1.332 0 2.103.947 2.103 2.688v5.007c0 .457.293.646 1.41.666v.604h-4.156v-.604c.96-.02 1.123-.21 1.123-.666v-4.29c0-1.726-.623-2.206-1.787-2.206-.647 0-1.313.348-2.104.99.02.27.04.435.04.613v4.893c0 .457.188.646 1.292.666v.604h-4.037v-.603h-.003zM209.64 30.08l4.155-.1c.188-1.646-.52-3.052-1.917-3.052-1.17 0-2.08.908-2.237 3.153m-1.76.93c0-2.655 1.625-4.684 4.144-4.684 2.52 0 3.687 2.208 3.527 4.33h-5.922v.157c0 2.125 1.063 3.667 2.957 3.667 1.082 0 1.938-.69 2.715-1.642l.39.37c-.71 1.205-1.728 2.308-3.666 2.308-2.708 0-4.143-1.955-4.143-4.507M216.618 34.747c1.112-.02 1.4-.21 1.4-.666v-6.015c0-.575-.288-.927-1.4-.94v-.602l2.985-.075v1.333c1.037-.716 2.228-1.395 3.498-1.395 1.333 0 2.187.947 2.187 2.688v5.007c0 .457.27.646 1.415.666v.604h-4.27v-.604c.98-.02 1.23-.21 1.23-.666v-4.31c0-1.72-.666-2.187-1.83-2.187-.875 0-1.647.386-2.188.79v5.706c0 .456.252.645 1.23.665v.604h-4.256v-.603zM228.36 33.096v-5.72h-1.647v-.54l1.688-.354v-2.47l1.583-.696v3.207h2.79v.812h-2.79v5.542c0 1.06.377 1.568 1.188 1.568.542 0 .98-.405 1.417-1.053l.44.312c-.712 1.293-1.367 1.81-2.606 1.81-1.292.002-2.06-.805-2.06-2.418M108.37 53.14V50.6c-2.78.604-3.414 1.02-3.414 2.29 0 .81.44 1.437 1.446 1.437.77-.002 1.542-.586 1.97-1.186m-5.238.187c0-.77.375-1.562 1.18-2 1.472-.812 3.767-1.125 4.057-1.354v-.56c0-1.94-.54-2.542-1.79-2.542-.625 0-.99.19-1.322.5.155.335.238.647.238.917 0 .584-.372 1.04-1.03 1.04-.614 0-.957-.478-.957-1.04 0-1.123 1.478-2.018 3.34-2.018 2.008 0 3.143.913 3.143 2.767v4.434c0 .94.22 1.167 1.49 1.022l.082.46c-.698.25-1.187.374-1.8.374-1.024 0-1.197-.457-1.313-1.498h-.083c-.772.873-1.76 1.54-2.896 1.54-1.62-.002-2.34-1-2.34-2.04M112.135 54.64c1.124-.022 1.416-.21 1.416-.667v-6.017c0-.584-.29-.916-1.415-.938v-.604l2.998-.082v1.33c1.02-.707 2.22-1.393 3.5-1.393 1.33 0 2.183.956 2.183 2.685v5.016c0 .458.272.647 1.406.667v.604h-4.268v-.603c.988-.02 1.238-.21 1.238-.666v-4.31c0-1.727-.676-2.186-1.84-2.186-.866 0-1.637.396-2.178.79v5.706c0 .456.25.646 1.217.665v.604h-4.255v-.6zM128.793 53.66v-5.727c-.5-.748-1.042-1.125-1.988-1.125-1.374 0-2.592 1.416-2.592 4.04 0 2.08 1.01 3.622 2.748 3.622.7.003 1.293-.352 1.833-.81m-6.37-2.708c0-2.687 1.698-4.726 4.29-4.726.978 0 1.56.207 2.08.52v-3.352c0-.582-.362-.916-1.487-.938v-.604l3.112-.082v12.2c0 .478.292.645 1.41.687v.582l-2.993.083v-1.02c-.657.666-1.49 1.086-2.632 1.086-2.375.003-3.78-1.94-3.78-4.438M140.713 54.555c3.997 0 4.934-2.205 4.934-5.808 0-3.664-1.686-5.52-5.1-5.52h-1.312V54.55h1.478v.003zm-5.33.063c1.623-.043 2.016-.23 2.016-.835v-9.807c0-.602-.394-.77-2.016-.832v-.623h5.288c4.768 0 7.06 2.456 7.06 6.12 0 3.52-2.003 6.6-6.873 6.6h-5.476v-.622zM150.582 49.975l4.164-.103c.188-1.647-.52-3.062-1.917-3.062-1.184 0-2.082.917-2.248 3.165m-1.75.916c0-2.645 1.623-4.66 4.143-4.66 2.52 0 3.687 2.184 3.52 4.327h-5.923v.146c0 2.124 1.068 3.665 2.957 3.665 1.075 0 1.944-.688 2.715-1.646l.396.375c-.708 1.207-1.727 2.295-3.663 2.295-2.707 0-4.145-1.942-4.145-4.5M158.182 48.145c-.334-.815-.604-1.105-1.48-1.21v-.56h4.33v.56c-.936.063-1.29.272-1.29.624 0 .085.022.187.085.355l2.145 5.453h.082l1.793-4.62c.15-.397.248-.71.248-.96 0-.452-.29-.73-1.145-.873v-.54h3.434v.54c-.604.082-1.123.562-1.52 1.497l-2.872 6.954h-.917l-2.893-7.22zM168.032 49.975l4.16-.103c.187-1.647-.522-3.062-1.917-3.062-1.17 0-2.082.917-2.243 3.165m-1.755.916c0-2.645 1.625-4.66 4.144-4.66 2.522 0 3.688 2.184 3.523 4.327h-5.918v.146c0 2.124 1.062 3.665 2.945 3.665 1.077 0 1.95-.688 2.72-1.646l.395.375c-.707 1.207-1.728 2.295-3.664 2.295-2.705 0-4.143-1.942-4.143-4.5M174.877 54.64c1.124-.022 1.414-.21 1.414-.667V43.396c0-.582-.372-.916-1.496-.938v-.604l3.122-.082v12.2c0 .456.27.645 1.398.665v.604h-4.438v-.6zM186.85 50.81c0-2.706-1.062-3.997-2.604-3.997-1.52 0-2.435 1.29-2.435 3.996 0 2.695 1.062 3.995 2.605 3.995 1.517 0 2.435-1.3 2.435-3.996m-6.83.018c0-2.684 1.684-4.602 4.33-4.602 2.727 0 4.31 1.854 4.31 4.54 0 2.704-1.687 4.626-4.31 4.626-2.77 0-4.33-1.858-4.33-4.564M196.945 50.643c0-2.125-.916-3.498-2.342-3.498-1.05 0-1.74.562-2.238 1.06v4.833c.35 1.23 1.02 1.705 2.186 1.705 1.27-.002 2.395-1.416 2.395-4.1m-7.62 7.723c1.124-.027 1.415-.21 1.415-.688v-9.723c0-.584-.29-.918-1.415-.938v-.604l3-.082v1.247c.893-.78 1.704-1.353 2.892-1.353 2.29 0 3.52 1.77 3.52 4.33 0 2.646-1.416 4.787-3.895 4.787-.998 0-1.748-.247-2.477-.622v2.957c0 .48.438.66 1.832.688v.582h-4.872v-.58zM205.48 54.64c.96-.022 1.123-.21 1.123-.667v-4.29c0-1.727-.705-2.206-1.853-2.206-.875 0-1.457.396-1.998.79v5.706c0 .457.146.646 1.104.666v.603h-4.135v-.604c1.114-.022 1.406-.21 1.406-.667v-6.017c0-.584-.292-.916-1.405-.938v-.604l2.988-.082v1.33c1.024-.707 2.062-1.393 3.33-1.393 1 0 1.737.603 2.02 1.644 1.147-1 2.292-1.645 3.52-1.645 1.334 0 2.108.956 2.108 2.685v5.016c0 .458.287.647 1.412.667v.604h-4.146v-.603c.96-.02 1.12-.21 1.12-.666v-4.288c0-1.727-.62-2.207-1.785-2.207-.652 0-1.312.354-2.104.98.02.27.04.457.04.623v4.893c0 .458.17.647 1.292.667v.604h-4.04v-.602h.005zM217.454 49.975l4.162-.103c.188-1.647-.52-3.062-1.916-3.062-1.18 0-2.082.917-2.246 3.165m-1.75.916c0-2.645 1.622-4.66 4.135-4.66 2.525 0 3.69 2.184 3.523 4.327h-5.918v.146c0 2.124 1.064 3.665 2.945 3.665 1.082 0 1.952-.688 2.725-1.646l.396.375c-.71 1.207-1.727 2.295-3.67 2.295-2.7 0-4.136-1.942-4.136-4.5M224.432 54.64c1.12-.022 1.41-.21 1.41-.667v-6.017c0-.584-.29-.916-1.41-.938v-.604l2.993-.082v1.33c1.022-.707 2.228-1.393 3.498-1.393 1.333 0 2.185.956 2.185 2.685v5.016c0 .458.27.647 1.418.667v.604h-4.27v-.603c.978-.02 1.228-.21 1.228-.666v-4.31c0-1.727-.668-2.186-1.832-2.186-.875 0-1.646.396-2.187.79v5.706c0 .456.25.646 1.228.665v.604h-4.264v-.603h.002zM236.376 52.977V47.27h-1.646v-.54l1.688-.355v-2.48L238 43.21v3.207h2.795v.812H238v5.54c0 1.06.393 1.56 1.19 1.56.54 0 .976-.395 1.413-1.04l.455.312c-.728 1.29-1.373 1.796-2.62 1.796-1.292-.003-2.062-.798-2.062-2.42"/></svg>