<svg xmlns="http://www.w3.org/2000/svg" width="65" height="61.45" viewBox="0 0 65 61.45"><path d="M15.37,42A11.08,11.08,0,0,1,4.51,31.49H0C.72,41.62,9.76,47.87,18.85,45.66A24.85,24.85,0,0,1,18,41.71,10.56,10.56,0,0,1,15.37,42Z" fill="#00b2de"/><path d="M30.68,30.28a15.92,15.92,0,0,1-5.42,12.06,19.24,19.24,0,0,1-.41-6.26,13,13,0,0,0-.76-13,11,11,0,0,0-9.23-4.32c-3.93,0-7,1.78-9.34,5.21L2.1,22.41,6.1.05H26.49V4.5H9.91L7.62,17.07c5.73-4.33,14.17-3.2,18.87,1.85A16.5,16.5,0,0,1,30.68,30.28Z" fill="#00b2de"/><path d="M65,37.72C65.1,64,29.68,70.66,20.42,46.48A23.93,23.93,0,0,1,23.3,24.15,10.81,10.81,0,0,1,25,30.59a18.53,18.53,0,0,0-.85,2.51,19.86,19.86,0,0,0,.06,10.07c6,21.27,36.07,17.36,36.22-5.52C60.57,22.59,42.55,12.86,30.51,23a16.23,16.23,0,0,0-2.28-3.9C43.28,7.66,65.18,18.83,65,37.72Z" fill="#00b2de"/><polygon points="35.67 0.01 32.6 4.87 29.6 0.01 27.78 0.01 31.82 6.23 31.82 11.48 33.37 11.48 33.37 6.23 37.49 0.01 35.67 0.01" fill="#1d1d1b"/><path d="M41.6,6.93a2.21,2.21,0,0,0-2.19-2.36c-1.11,0-2,.82-2.18,2.36ZM43,9.12a3.47,3.47,0,0,1-3.46,2.58c-2.27,0-3.75-1.54-3.75-4.12a3.69,3.69,0,0,1,3.7-4A3.34,3.34,0,0,1,42.87,6.3,7.13,7.13,0,0,1,43,7.85H37.2a2.55,2.55,0,0,0,2.47,2.88,2,2,0,0,0,2-1.79Z" fill="#1d1d1b"/><path d="M47,8.08c-1.43.31-1.67.85-1.67,1.38s.48,1.14,1.44,1.14a2.09,2.09,0,0,0,2-1.15C49,9,49,8.85,49,7.72c-.5.09-1.18.18-2,.36M49,6.9V6.7c0-.79,0-2.13-1.72-2.13S45.6,5.78,45.6,6.18L44.23,6.1A3,3,0,0,1,44.54,5a2.79,2.79,0,0,1,2.65-1.37,3.85,3.85,0,0,1,2.24.65,2.86,2.86,0,0,1,.83,2.59V9.3c0,.73,0,1.11.55,1.11a1,1,0,0,0,.42-.09v1.12a3,3,0,0,1-.81.13,1.18,1.18,0,0,1-1.33-1.13,3.47,3.47,0,0,1-2.63,1.25,2.33,2.33,0,0,1-2.6-2.19,2.07,2.07,0,0,1,.34-1.16c.44-.65,1.25-1.17,3.54-1.35Z" fill="#1d1d1b"/><path d="M53.4,3.83V5.22A2.77,2.77,0,0,1,56,3.73v1.4a4,4,0,0,0-.53,0A2,2,0,0,0,53.72,6a3.68,3.68,0,0,0-.32,1.94v3.54H52.1V3.83Z" fill="#1d1d1b"/><path d="M59.28,8.1c-1.23-.29-2.75-.64-2.75-2.23,0-1.39,1.19-2.27,3-2.27a3,3,0,0,1,3.28,2.5l-1.39.18A1.37,1.37,0,0,0,60.82,5a2.35,2.35,0,0,0-1.47-.45c-1,0-1.52.6-1.52,1.12,0,.73.83,1,1.84,1.2l.73.18c.91.21,2.55.6,2.55,2.21,0,1.25-1.1,2.42-3.21,2.42a4.21,4.21,0,0,1-2.38-.62A2.9,2.9,0,0,1,56.23,9l1.46-.22a1.71,1.71,0,0,0,.57,1.49,2.24,2.24,0,0,0,1.54.44c1.14,0,1.8-.44,1.8-1.27s-.66-1-1.59-1.22Z" fill="#1d1d1b"/><text transform="translate(25.45 49.32)" font-size="11.29" fill="#626366" font-family="AkzidenzGroteskBE-Md, Berthold Akzidenz Grotesk" font-weight="500"> </text></svg>